<?xml version="1.0" encoding="UTF-8" standalone="no"?>
<svg width="512px" height="512px" viewBox="0 0 512 512" version="1.1" xmlns="http://www.w3.org/2000/svg" xmlns:xlink="http://www.w3.org/1999/xlink" xmlns:sketch="http://www.bohemiancoding.com/sketch/ns">
    <!-- Generator: Sketch 3.4.2 (15855) - http://www.bohemiancoding.com/sketch -->
    <title>512</title>
    <desc>Created with Sketch.</desc>
    <defs></defs>
    <g id="Page-1" stroke="none" stroke-width="1" fill="none" fill-rule="evenodd" sketch:type="MSPage">
        <g id="512" sketch:type="MSArtboardGroup">
            <g id="hex-image" sketch:type="MSLayerGroup" transform="translate(34.707789, -0.624930)" fill="#DDFFFD">
                <path d="M0.499590312,128.790826 L0.499590312,382.823921 L221.303062,509.978852 L441.555564,382.823921 L441.55556,128.790826 L221.303057,0.624932294 L0.499590312,128.790826 Z" id="border" sketch:type="MSShapeGroup"></path>
            </g>
            <g id="RGB" sketch:type="MSLayerGroup" transform="translate(33.707789, 48.375070)">
                <g id="floor" transform="translate(0.907789, 184.852624)" sketch:type="MSShapeGroup">
                    <path d="M423.507545,138.138736 L221.186362,254.915487 L18.971014,138.366452 L221.292211,21.6618538 L423.507545,138.138736 Z M0.499590312,127.832394 L0.499590312,148.946367 L221.303062,276.101298 L441.63991,148.946368 L441.63991,127.59994 L221.027577,0.384432402 L0.499590312,127.832394 Z" id="border" fill="#91DBFF"></path>
                    <path d="M221.134422,255.092313 L221.303062,276.101298 L441.63991,148.946368 L441.63991,127.59994 L221.134422,255.092313 Z" id="Path" fill="#83C5E6"></path>
                    <path d="M0.557478906,127.836479 L16.1176236,127.828321 L441.702094,127.605199 L221.134422,255.097181 L11.7216187,134.232757 L0.557478906,127.836479 Z M426.141949,127.597397 L0.557478906,127.820518 L221.023223,0.373257778 L430.537954,121.192961 L441.633559,127.597398 L426.141949,127.597397 Z" id="upper" fill="#B5E7FF"></path>
                </g>
                <g id="Group-+-Group-+-Group" transform="translate(55.000000, 146.000000)" sketch:type="MSShapeGroup">
                    <g id="Group" transform="translate(0.000000, 33.000000)">
                        <g id="cube" transform="translate(0.000000, 75.076667)">
                            <path d="M0.120067135,19.6419535 L0.0794300999,52.9030948 L35.1850785,72.4572735 L70.2031291,52.8690692 L70.2031291,19.6193591 L35.1340845,0.0439708236 L0.120067135,19.6419535 Z" id="border" fill="#91FFD3"></path>
                            <path d="M0.0886338349,19.6603233 L2.56254859,19.6590688 L70.2264247,19.6247567 L35.1575298,39.1924471 L1.8636257,20.6439577 L0.0886338349,19.6603233 Z M67.75251,19.6235568 L0.0886338349,19.6578689 L35.1575288,0.0906943658 L68.4514329,18.6386679 L70.2264247,19.6223023 L67.75251,19.6235568 Z" id="upper" fill="#B5FFE2"></path>
                            <path d="M35.1850785,72.4572735 L70.2031291,52.8690692 L70.2031291,19.6193591 L35.1850783,39.1924471 L35.1850785,72.4572735 Z" id="border" fill="#83E6BE"></path>
                        </g>
                        <g id="cube" transform="translate(66.392865, 112.986667)">
                            <path d="M0.120067135,19.6419535 L0.0794300999,52.9030948 L35.1850785,72.4572735 L70.2031291,52.8690692 L70.2031291,19.6193591 L35.1340845,0.0439708236 L0.120067135,19.6419535 Z" id="border" fill="#91FFD3"></path>
                            <path d="M0.0886338349,19.6603233 L2.56254859,19.6590688 L70.2264247,19.6247567 L35.1575298,39.1924471 L1.8636257,20.6439577 L0.0886338349,19.6603233 Z M67.75251,19.6235568 L0.0886338349,19.6578689 L35.1575288,0.0906943658 L68.4514329,18.6386679 L70.2264247,19.6223023 L67.75251,19.6235568 Z" id="upper" fill="#B5FFE2"></path>
                            <path d="M35.1850785,72.4572735 L70.2031291,52.8690692 L70.2031291,19.6193591 L35.1850783,39.1924471 L35.1850785,72.4572735 Z" id="border" fill="#83E6BE"></path>
                        </g>
                        <g id="cube" transform="translate(131.276801, 150.153333)">
                            <path d="M0.120067135,19.6419535 L0.0794300999,52.9030948 L35.1850785,72.4572735 L70.2031291,52.8690692 L70.2031291,19.6193591 L35.1340845,0.0439708236 L0.120067135,19.6419535 Z" id="border" fill="#91FFD3"></path>
                            <path d="M0.0886338349,19.6603233 L2.56254859,19.6590688 L70.2264247,19.6247567 L35.1575298,39.1924471 L1.8636257,20.6439577 L0.0886338349,19.6603233 Z M67.75251,19.6235568 L0.0886338349,19.6578689 L35.1575288,0.0906943658 L68.4514329,18.6386679 L70.2264247,19.6223023 L67.75251,19.6235568 Z" id="upper" fill="#B5FFE2"></path>
                            <path d="M35.1850785,72.4572735 L70.2031291,52.8690692 L70.2031291,19.6193591 L35.1850783,39.1924471 L35.1850785,72.4572735 Z" id="border" fill="#83E6BE"></path>
                        </g>
                        <g id="cube" transform="translate(64.883936, 37.910000)">
                            <path d="M0.120067135,19.6419535 L0.0794300999,52.9030948 L35.1850785,72.4572735 L70.2031291,52.8690692 L70.2031291,19.6193591 L35.1340845,0.0439708236 L0.120067135,19.6419535 Z" id="border" fill="#91FFD3"></path>
                            <path d="M0.0886338349,19.6603233 L2.56254859,19.6590688 L70.2264247,19.6247567 L35.1575298,39.1924471 L1.8636257,20.6439577 L0.0886338349,19.6603233 Z M67.75251,19.6235568 L0.0886338349,19.6578689 L35.1575288,0.0906943658 L68.4514329,18.6386679 L70.2264247,19.6223023 L67.75251,19.6235568 Z" id="upper" fill="#B5FFE2"></path>
                            <path d="M35.1850785,72.4572735 L70.2031291,52.8690692 L70.2031291,19.6193591 L35.1850783,39.1924471 L35.1850785,72.4572735 Z" id="border" fill="#83E6BE"></path>
                        </g>
                        <g id="cube" transform="translate(131.276801, 75.820000)">
                            <path d="M0.120067135,19.6419535 L0.0794300999,52.9030948 L35.1850785,72.4572735 L70.2031291,52.8690692 L70.2031291,19.6193591 L35.1340845,0.0439708236 L0.120067135,19.6419535 Z" id="border" fill="#91FFD3"></path>
                            <path d="M0.0886338349,19.6603233 L2.56254859,19.6590688 L70.2264247,19.6247567 L35.1575298,39.1924471 L1.8636257,20.6439577 L0.0886338349,19.6603233 Z M67.75251,19.6235568 L0.0886338349,19.6578689 L35.1575288,0.0906943658 L68.4514329,18.6386679 L70.2264247,19.6223023 L67.75251,19.6235568 Z" id="upper" fill="#B5FFE2"></path>
                            <path d="M35.1850785,72.4572735 L70.2031291,52.8690692 L70.2031291,19.6193591 L35.1850783,39.1924471 L35.1850785,72.4572735 Z" id="border" fill="#83E6BE"></path>
                        </g>
                        <g id="cube" transform="translate(196.160737, 112.986667)">
                            <path d="M0.120067135,19.6419535 L0.0794300999,52.9030948 L35.1850785,72.4572735 L70.2031291,52.8690692 L70.2031291,19.6193591 L35.1340845,0.0439708236 L0.120067135,19.6419535 Z" id="border" fill="#91FFD3"></path>
                            <path d="M0.0886338349,19.6603233 L2.56254859,19.6590688 L70.2264247,19.6247567 L35.1575298,39.1924471 L1.8636257,20.6439577 L0.0886338349,19.6603233 Z M67.75251,19.6235568 L0.0886338349,19.6578689 L35.1575288,0.0906943658 L68.4514329,18.6386679 L70.2264247,19.6223023 L67.75251,19.6235568 Z" id="upper" fill="#B5FFE2"></path>
                            <path d="M35.1850785,72.4572735 L70.2031291,52.8690692 L70.2031291,19.6193591 L35.1850783,39.1924471 L35.1850785,72.4572735 Z" id="border" fill="#83E6BE"></path>
                        </g>
                        <g id="cube" transform="translate(130.522337, 0.000000)">
                            <path d="M0.120067135,19.6419535 L0.0794300999,52.9030948 L35.1850785,72.4572735 L70.2031291,52.8690692 L70.2031291,19.6193591 L35.1340845,0.0439708236 L0.120067135,19.6419535 Z" id="border" fill="#91FFD3"></path>
                            <path d="M0.0886338349,19.6603233 L2.56254859,19.6590688 L70.2264247,19.6247567 L35.1575298,39.1924471 L1.8636257,20.6439577 L0.0886338349,19.6603233 Z M67.75251,19.6235568 L0.0886338349,19.6578689 L35.1575288,0.0906943658 L68.4514329,18.6386679 L70.2264247,19.6223023 L67.75251,19.6235568 Z" id="upper" fill="#B5FFE2"></path>
                            <path d="M35.1850785,72.4572735 L70.2031291,52.8690692 L70.2031291,19.6193591 L35.1850783,39.1924471 L35.1850785,72.4572735 Z" id="border" fill="#83E6BE"></path>
                        </g>
                        <g id="cube" transform="translate(196.915201, 37.910000)">
                            <path d="M0.120067135,19.6419535 L0.0794300999,52.9030948 L35.1850785,72.4572735 L70.2031291,52.8690692 L70.2031291,19.6193591 L35.1340845,0.0439708236 L0.120067135,19.6419535 Z" id="border" fill="#91FFD3"></path>
                            <path d="M0.0886338349,19.6603233 L2.56254859,19.6590688 L70.2264247,19.6247567 L35.1575298,39.1924471 L1.8636257,20.6439577 L0.0886338349,19.6603233 Z M67.75251,19.6235568 L0.0886338349,19.6578689 L35.1575288,0.0906943658 L68.4514329,18.6386679 L70.2264247,19.6223023 L67.75251,19.6235568 Z" id="upper" fill="#B5FFE2"></path>
                            <path d="M35.1850785,72.4572735 L70.2031291,52.8690692 L70.2031291,19.6193591 L35.1850783,39.1924471 L35.1850785,72.4572735 Z" id="border" fill="#83E6BE"></path>
                        </g>
                        <g id="cube" transform="translate(261.799138, 75.076667)">
                            <path d="M0.120067135,19.6419535 L0.0794300999,52.9030948 L35.1850785,72.4572735 L70.2031291,52.8690692 L70.2031291,19.6193591 L35.1340845,0.0439708236 L0.120067135,19.6419535 Z" id="border" fill="#91FFD3"></path>
                            <path d="M0.0886338349,19.6603233 L2.56254859,19.6590688 L70.2264247,19.6247567 L35.1575298,39.1924471 L1.8636257,20.6439577 L0.0886338349,19.6603233 Z M67.75251,19.6235568 L0.0886338349,19.6578689 L35.1575288,0.0906943658 L68.4514329,18.6386679 L70.2264247,19.6223023 L67.75251,19.6235568 Z" id="upper" fill="#B5FFE2"></path>
                            <path d="M35.1850785,72.4572735 L70.2031291,52.8690692 L70.2031291,19.6193591 L35.1850783,39.1924471 L35.1850785,72.4572735 Z" id="border" fill="#83E6BE"></path>
                        </g>
                    </g>
                    <g id="Group">
                        <g id="cube" transform="translate(0.000000, 75.076667)">
                            <path d="M0.120067135,19.6419535 L0.0794300999,52.9030948 L35.1850785,72.4572735 L70.2031291,52.8690692 L70.2031291,19.6193591 L35.1340845,0.0439708236 L0.120067135,19.6419535 Z" id="border" fill="#91FFD3"></path>
                            <path d="M0.0886338349,19.6603233 L2.56254859,19.6590688 L70.2264247,19.6247567 L35.1575298,39.1924471 L1.8636257,20.6439577 L0.0886338349,19.6603233 Z M67.75251,19.6235568 L0.0886338349,19.6578689 L35.1575288,0.0906943658 L68.4514329,18.6386679 L70.2264247,19.6223023 L67.75251,19.6235568 Z" id="upper" fill="#B5FFE2"></path>
                            <path d="M35.1850785,72.4572735 L70.2031291,52.8690692 L70.2031291,19.6193591 L35.1850783,39.1924471 L35.1850785,72.4572735 Z" id="border" fill="#83E6BE"></path>
                        </g>
                        <g id="cube" transform="translate(66.392865, 112.986667)">
                            <path d="M0.120067135,19.6419535 L0.0794300999,52.9030948 L35.1850785,72.4572735 L70.2031291,52.8690692 L70.2031291,19.6193591 L35.1340845,0.0439708236 L0.120067135,19.6419535 Z" id="border" fill="#91FFD3"></path>
                            <path d="M0.0886338349,19.6603233 L2.56254859,19.6590688 L70.2264247,19.6247567 L35.1575298,39.1924471 L1.8636257,20.6439577 L0.0886338349,19.6603233 Z M67.75251,19.6235568 L0.0886338349,19.6578689 L35.1575288,0.0906943658 L68.4514329,18.6386679 L70.2264247,19.6223023 L67.75251,19.6235568 Z" id="upper" fill="#B5FFE2"></path>
                            <path d="M35.1850785,72.4572735 L70.2031291,52.8690692 L70.2031291,19.6193591 L35.1850783,39.1924471 L35.1850785,72.4572735 Z" id="border" fill="#83E6BE"></path>
                        </g>
                        <g id="cube" transform="translate(131.276801, 150.153333)">
                            <path d="M0.120067135,19.6419535 L0.0794300999,52.9030948 L35.1850785,72.4572735 L70.2031291,52.8690692 L70.2031291,19.6193591 L35.1340845,0.0439708236 L0.120067135,19.6419535 Z" id="border" fill="#91FFD3"></path>
                            <path d="M0.0886338349,19.6603233 L2.56254859,19.6590688 L70.2264247,19.6247567 L35.1575298,39.1924471 L1.8636257,20.6439577 L0.0886338349,19.6603233 Z M67.75251,19.6235568 L0.0886338349,19.6578689 L35.1575288,0.0906943658 L68.4514329,18.6386679 L70.2264247,19.6223023 L67.75251,19.6235568 Z" id="upper" fill="#B5FFE2"></path>
                            <path d="M35.1850785,72.4572735 L70.2031291,52.8690692 L70.2031291,19.6193591 L35.1850783,39.1924471 L35.1850785,72.4572735 Z" id="border" fill="#83E6BE"></path>
                        </g>
                        <g id="cube" transform="translate(64.883936, 37.910000)">
                            <path d="M0.120067135,19.6419535 L0.0794300999,52.9030948 L35.1850785,72.4572735 L70.2031291,52.8690692 L70.2031291,19.6193591 L35.1340845,0.0439708236 L0.120067135,19.6419535 Z" id="border" fill="#91FFD3"></path>
                            <path d="M0.0886338349,19.6603233 L2.56254859,19.6590688 L70.2264247,19.6247567 L35.1575298,39.1924471 L1.8636257,20.6439577 L0.0886338349,19.6603233 Z M67.75251,19.6235568 L0.0886338349,19.6578689 L35.1575288,0.0906943658 L68.4514329,18.6386679 L70.2264247,19.6223023 L67.75251,19.6235568 Z" id="upper" fill="#B5FFE2"></path>
                            <path d="M35.1850785,72.4572735 L70.2031291,52.8690692 L70.2031291,19.6193591 L35.1850783,39.1924471 L35.1850785,72.4572735 Z" id="border" fill="#83E6BE"></path>
                        </g>
                        <g id="cube" transform="translate(131.276801, 75.820000)">
                            <path d="M0.120067135,19.6419535 L0.0794300999,52.9030948 L35.1850785,72.4572735 L70.2031291,52.8690692 L70.2031291,19.6193591 L35.1340845,0.0439708236 L0.120067135,19.6419535 Z" id="border" fill="#91FFD3"></path>
                            <path d="M0.0886338349,19.6603233 L2.56254859,19.6590688 L70.2264247,19.6247567 L35.1575298,39.1924471 L1.8636257,20.6439577 L0.0886338349,19.6603233 Z M67.75251,19.6235568 L0.0886338349,19.6578689 L35.1575288,0.0906943658 L68.4514329,18.6386679 L70.2264247,19.6223023 L67.75251,19.6235568 Z" id="upper" fill="#B5FFE2"></path>
                            <path d="M35.1850785,72.4572735 L70.2031291,52.8690692 L70.2031291,19.6193591 L35.1850783,39.1924471 L35.1850785,72.4572735 Z" id="border" fill="#83E6BE"></path>
                        </g>
                        <g id="cube" transform="translate(196.160737, 112.986667)">
                            <path d="M0.120067135,19.6419535 L0.0794300999,52.9030948 L35.1850785,72.4572735 L70.2031291,52.8690692 L70.2031291,19.6193591 L35.1340845,0.0439708236 L0.120067135,19.6419535 Z" id="border" fill="#91FFD3"></path>
                            <path d="M0.0886338349,19.6603233 L2.56254859,19.6590688 L70.2264247,19.6247567 L35.1575298,39.1924471 L1.8636257,20.6439577 L0.0886338349,19.6603233 Z M67.75251,19.6235568 L0.0886338349,19.6578689 L35.1575288,0.0906943658 L68.4514329,18.6386679 L70.2264247,19.6223023 L67.75251,19.6235568 Z" id="upper" fill="#B5FFE2"></path>
                            <path d="M35.1850785,72.4572735 L70.2031291,52.8690692 L70.2031291,19.6193591 L35.1850783,39.1924471 L35.1850785,72.4572735 Z" id="border" fill="#83E6BE"></path>
                        </g>
                        <g id="cube" transform="translate(130.522337, 0.000000)">
                            <path d="M0.120067135,19.6419535 L0.0794300999,52.9030948 L35.1850785,72.4572735 L70.2031291,52.8690692 L70.2031291,19.6193591 L35.1340845,0.0439708236 L0.120067135,19.6419535 Z" id="border" fill="#91FFD3"></path>
                            <path d="M0.0886338349,19.6603233 L2.56254859,19.6590688 L70.2264247,19.6247567 L35.1575298,39.1924471 L1.8636257,20.6439577 L0.0886338349,19.6603233 Z M67.75251,19.6235568 L0.0886338349,19.6578689 L35.1575288,0.0906943658 L68.4514329,18.6386679 L70.2264247,19.6223023 L67.75251,19.6235568 Z" id="upper" fill="#B5FFE2"></path>
                            <path d="M35.1850785,72.4572735 L70.2031291,52.8690692 L70.2031291,19.6193591 L35.1850783,39.1924471 L35.1850785,72.4572735 Z" id="border" fill="#83E6BE"></path>
                        </g>
                        <g id="cube" transform="translate(196.915201, 37.910000)">
                            <path d="M0.120067135,19.6419535 L0.0794300999,52.9030948 L35.1850785,72.4572735 L70.2031291,52.8690692 L70.2031291,19.6193591 L35.1340845,0.0439708236 L0.120067135,19.6419535 Z" id="border" fill="#91FFD3"></path>
                            <path d="M0.0886338349,19.6603233 L2.56254859,19.6590688 L70.2264247,19.6247567 L35.1575298,39.1924471 L1.8636257,20.6439577 L0.0886338349,19.6603233 Z M67.75251,19.6235568 L0.0886338349,19.6578689 L35.1575288,0.0906943658 L68.4514329,18.6386679 L70.2264247,19.6223023 L67.75251,19.6235568 Z" id="upper" fill="#B5FFE2"></path>
                            <path d="M35.1850785,72.4572735 L70.2031291,52.8690692 L70.2031291,19.6193591 L35.1850783,39.1924471 L35.1850785,72.4572735 Z" id="border" fill="#83E6BE"></path>
                        </g>
                        <g id="cube" transform="translate(261.799138, 75.076667)">
                            <path d="M0.120067135,19.6419535 L0.0794300999,52.9030948 L35.1850785,72.4572735 L70.2031291,52.8690692 L70.2031291,19.6193591 L35.1340845,0.0439708236 L0.120067135,19.6419535 Z" id="border" fill="#91FFD3"></path>
                            <path d="M0.0886338349,19.6603233 L2.56254859,19.6590688 L70.2264247,19.6247567 L35.1575298,39.1924471 L1.8636257,20.6439577 L0.0886338349,19.6603233 Z M67.75251,19.6235568 L0.0886338349,19.6578689 L35.1575288,0.0906943658 L68.4514329,18.6386679 L70.2264247,19.6223023 L67.75251,19.6235568 Z" id="upper" fill="#B5FFE2"></path>
                            <path d="M35.1850785,72.4572735 L70.2031291,52.8690692 L70.2031291,19.6193591 L35.1850783,39.1924471 L35.1850785,72.4572735 Z" id="border" fill="#83E6BE"></path>
                        </g>
                    </g>
                </g>
                <g id="Group" transform="translate(55.000000, 90.624930)" sketch:type="MSShapeGroup">
                    <g id="cube" transform="translate(0.000000, 75.076667)">
                        <path d="M0.120067135,19.6419535 L0.0794300999,52.9030948 L35.1850785,72.4572735 L70.2031291,52.8690692 L70.2031291,19.6193591 L35.1340845,0.0439708236 L0.120067135,19.6419535 Z" id="border" fill="#91FFD3"></path>
                        <path d="M0.0886338349,19.6603233 L2.56254859,19.6590688 L70.2264247,19.6247567 L35.1575298,39.1924471 L1.8636257,20.6439577 L0.0886338349,19.6603233 Z M67.75251,19.6235568 L0.0886338349,19.6578689 L35.1575288,0.0906943658 L68.4514329,18.6386679 L70.2264247,19.6223023 L67.75251,19.6235568 Z" id="upper" fill="#B5FFE2"></path>
                        <path d="M35.1850785,72.4572735 L70.2031291,52.8690692 L70.2031291,19.6193591 L35.1850783,39.1924471 L35.1850785,72.4572735 Z" id="border" fill="#83E6BE"></path>
                    </g>
                    <g id="cube" transform="translate(66.392865, 112.986667)">
                        <path d="M0.120067135,19.6419535 L0.0794300999,52.9030948 L35.1850785,72.4572735 L70.2031291,52.8690692 L70.2031291,19.6193591 L35.1340845,0.0439708236 L0.120067135,19.6419535 Z" id="border" fill="#91FFD3"></path>
                        <path d="M0.0886338349,19.6603233 L2.56254859,19.6590688 L70.2264247,19.6247567 L35.1575298,39.1924471 L1.8636257,20.6439577 L0.0886338349,19.6603233 Z M67.75251,19.6235568 L0.0886338349,19.6578689 L35.1575288,0.0906943658 L68.4514329,18.6386679 L70.2264247,19.6223023 L67.75251,19.6235568 Z" id="upper" fill="#B5FFE2"></path>
                        <path d="M35.1850785,72.4572735 L70.2031291,52.8690692 L70.2031291,19.6193591 L35.1850783,39.1924471 L35.1850785,72.4572735 Z" id="border" fill="#83E6BE"></path>
                    </g>
                    <g id="cube" transform="translate(131.276801, 150.153333)">
                        <path d="M0.120067135,19.6419535 L0.0794300999,52.9030948 L35.1850785,72.4572735 L70.2031291,52.8690692 L70.2031291,19.6193591 L35.1340845,0.0439708236 L0.120067135,19.6419535 Z" id="border" fill="#91FFD3"></path>
                        <path d="M0.0886338349,19.6603233 L2.56254859,19.6590688 L70.2264247,19.6247567 L35.1575298,39.1924471 L1.8636257,20.6439577 L0.0886338349,19.6603233 Z M67.75251,19.6235568 L0.0886338349,19.6578689 L35.1575288,0.0906943658 L68.4514329,18.6386679 L70.2264247,19.6223023 L67.75251,19.6235568 Z" id="upper" fill="#B5FFE2"></path>
                        <path d="M35.1850785,72.4572735 L70.2031291,52.8690692 L70.2031291,19.6193591 L35.1850783,39.1924471 L35.1850785,72.4572735 Z" id="border" fill="#83E6BE"></path>
                    </g>
                    <g id="cube" transform="translate(64.883936, 37.910000)">
                        <path d="M0.120067135,19.6419535 L0.0794300999,52.9030948 L35.1850785,72.4572735 L70.2031291,52.8690692 L70.2031291,19.6193591 L35.1340845,0.0439708236 L0.120067135,19.6419535 Z" id="border" fill="#91FFD3"></path>
                        <path d="M0.0886338349,19.6603233 L2.56254859,19.6590688 L70.2264247,19.6247567 L35.1575298,39.1924471 L1.8636257,20.6439577 L0.0886338349,19.6603233 Z M67.75251,19.6235568 L0.0886338349,19.6578689 L35.1575288,0.0906943658 L68.4514329,18.6386679 L70.2264247,19.6223023 L67.75251,19.6235568 Z" id="upper" fill="#B5FFE2"></path>
                        <path d="M35.1850785,72.4572735 L70.2031291,52.8690692 L70.2031291,19.6193591 L35.1850783,39.1924471 L35.1850785,72.4572735 Z" id="border" fill="#83E6BE"></path>
                    </g>
                    <g id="cube" transform="translate(131.276801, 75.820000)">
                        <path d="M0.120067135,19.6419535 L0.0794300999,52.9030948 L35.1850785,72.4572735 L70.2031291,52.8690692 L70.2031291,19.6193591 L35.1340845,0.0439708236 L0.120067135,19.6419535 Z" id="border" fill="#91FFD3"></path>
                        <path d="M0.0886338349,19.6603233 L2.56254859,19.6590688 L70.2264247,19.6247567 L35.1575298,39.1924471 L1.8636257,20.6439577 L0.0886338349,19.6603233 Z M67.75251,19.6235568 L0.0886338349,19.6578689 L35.1575288,0.0906943658 L68.4514329,18.6386679 L70.2264247,19.6223023 L67.75251,19.6235568 Z" id="upper" fill="#B5FFE2"></path>
                        <path d="M35.1850785,72.4572735 L70.2031291,52.8690692 L70.2031291,19.6193591 L35.1850783,39.1924471 L35.1850785,72.4572735 Z" id="border" fill="#83E6BE"></path>
                    </g>
                    <g id="cube" transform="translate(196.160737, 112.986667)">
                        <path d="M0.120067135,19.6419535 L0.0794300999,52.9030948 L35.1850785,72.4572735 L70.2031291,52.8690692 L70.2031291,19.6193591 L35.1340845,0.0439708236 L0.120067135,19.6419535 Z" id="border" fill="#91FFD3"></path>
                        <path d="M0.0886338349,19.6603233 L2.56254859,19.6590688 L70.2264247,19.6247567 L35.1575298,39.1924471 L1.8636257,20.6439577 L0.0886338349,19.6603233 Z M67.75251,19.6235568 L0.0886338349,19.6578689 L35.1575288,0.0906943658 L68.4514329,18.6386679 L70.2264247,19.6223023 L67.75251,19.6235568 Z" id="upper" fill="#B5FFE2"></path>
                        <path d="M35.1850785,72.4572735 L70.2031291,52.8690692 L70.2031291,19.6193591 L35.1850783,39.1924471 L35.1850785,72.4572735 Z" id="border" fill="#83E6BE"></path>
                    </g>
                    <g id="cube" transform="translate(130.522337, 0.000000)">
                        <path d="M0.120067135,19.6419535 L0.0794300999,52.9030948 L35.1850785,72.4572735 L70.2031291,52.8690692 L70.2031291,19.6193591 L35.1340845,0.0439708236 L0.120067135,19.6419535 Z" id="border" fill="#91FFD3"></path>
                        <path d="M0.0886338349,19.6603233 L2.56254859,19.6590688 L70.2264247,19.6247567 L35.1575298,39.1924471 L1.8636257,20.6439577 L0.0886338349,19.6603233 Z M67.75251,19.6235568 L0.0886338349,19.6578689 L35.1575288,0.0906943658 L68.4514329,18.6386679 L70.2264247,19.6223023 L67.75251,19.6235568 Z" id="upper" fill="#B5FFE2"></path>
                        <path d="M35.1850785,72.4572735 L70.2031291,52.8690692 L70.2031291,19.6193591 L35.1850783,39.1924471 L35.1850785,72.4572735 Z" id="border" fill="#83E6BE"></path>
                    </g>
                    <g id="cube" transform="translate(196.915201, 37.910000)">
                        <path d="M0.120067135,19.6419535 L0.0794300999,52.9030948 L35.1850785,72.4572735 L70.2031291,52.8690692 L70.2031291,19.6193591 L35.1340845,0.0439708236 L0.120067135,19.6419535 Z" id="border" fill="#91FFD3"></path>
                        <path d="M0.0886338349,19.6603233 L2.56254859,19.6590688 L70.2264247,19.6247567 L35.1575298,39.1924471 L1.8636257,20.6439577 L0.0886338349,19.6603233 Z M67.75251,19.6235568 L0.0886338349,19.6578689 L35.1575288,0.0906943658 L68.4514329,18.6386679 L70.2264247,19.6223023 L67.75251,19.6235568 Z" id="upper" fill="#B5FFE2"></path>
                        <path d="M35.1850785,72.4572735 L70.2031291,52.8690692 L70.2031291,19.6193591 L35.1850783,39.1924471 L35.1850785,72.4572735 Z" id="border" fill="#83E6BE"></path>
                    </g>
                    <g id="cube" transform="translate(261.799138, 75.076667)">
                        <path d="M0.120067135,19.6419535 L0.0794300999,52.9030948 L35.1850785,72.4572735 L70.2031291,52.8690692 L70.2031291,19.6193591 L35.1340845,0.0439708236 L0.120067135,19.6419535 Z" id="border" fill="#91FFD3"></path>
                        <path d="M0.0886338349,19.6603233 L2.56254859,19.6590688 L70.2264247,19.6247567 L35.1575298,39.1924471 L1.8636257,20.6439577 L0.0886338349,19.6603233 Z M67.75251,19.6235568 L0.0886338349,19.6578689 L35.1575288,0.0906943658 L68.4514329,18.6386679 L70.2264247,19.6223023 L67.75251,19.6235568 Z" id="upper" fill="#B5FFE2"></path>
                        <path d="M35.1850785,72.4572735 L70.2031291,52.8690692 L70.2031291,19.6193591 L35.1850783,39.1924471 L35.1850785,72.4572735 Z" id="border" fill="#83E6BE"></path>
                    </g>
                </g>
                <g id="Group-+-Group-+-Group" transform="translate(55.000000, 0.000000)" sketch:type="MSShapeGroup">
                    <g id="Group" transform="translate(0.000000, 33.000000)">
                        <g id="cube" transform="translate(0.000000, 75.076667)">
                            <path d="M0.120067135,19.6419535 L0.0794300999,52.9030948 L35.1850785,72.4572735 L70.2031291,52.8690692 L70.2031291,19.6193591 L35.1340845,0.0439708236 L0.120067135,19.6419535 Z" id="border" fill="#91FFD3"></path>
                            <path d="M0.0886338349,19.6603233 L2.56254859,19.6590688 L70.2264247,19.6247567 L35.1575298,39.1924471 L1.8636257,20.6439577 L0.0886338349,19.6603233 Z M67.75251,19.6235568 L0.0886338349,19.6578689 L35.1575288,0.0906943658 L68.4514329,18.6386679 L70.2264247,19.6223023 L67.75251,19.6235568 Z" id="upper" fill="#B5FFE2"></path>
                            <path d="M35.1850785,72.4572735 L70.2031291,52.8690692 L70.2031291,19.6193591 L35.1850783,39.1924471 L35.1850785,72.4572735 Z" id="border" fill="#83E6BE"></path>
                        </g>
                        <g id="cube" transform="translate(66.392865, 112.986667)">
                            <path d="M0.120067135,19.6419535 L0.0794300999,52.9030948 L35.1850785,72.4572735 L70.2031291,52.8690692 L70.2031291,19.6193591 L35.1340845,0.0439708236 L0.120067135,19.6419535 Z" id="border" fill="#91FFD3"></path>
                            <path d="M0.0886338349,19.6603233 L2.56254859,19.6590688 L70.2264247,19.6247567 L35.1575298,39.1924471 L1.8636257,20.6439577 L0.0886338349,19.6603233 Z M67.75251,19.6235568 L0.0886338349,19.6578689 L35.1575288,0.0906943658 L68.4514329,18.6386679 L70.2264247,19.6223023 L67.75251,19.6235568 Z" id="upper" fill="#B5FFE2"></path>
                            <path d="M35.1850785,72.4572735 L70.2031291,52.8690692 L70.2031291,19.6193591 L35.1850783,39.1924471 L35.1850785,72.4572735 Z" id="border" fill="#83E6BE"></path>
                        </g>
                        <g id="cube" transform="translate(131.276801, 150.153333)">
                            <path d="M0.120067135,19.6419535 L0.0794300999,52.9030948 L35.1850785,72.4572735 L70.2031291,52.8690692 L70.2031291,19.6193591 L35.1340845,0.0439708236 L0.120067135,19.6419535 Z" id="border" fill="#91FFD3"></path>
                            <path d="M0.0886338349,19.6603233 L2.56254859,19.6590688 L70.2264247,19.6247567 L35.1575298,39.1924471 L1.8636257,20.6439577 L0.0886338349,19.6603233 Z M67.75251,19.6235568 L0.0886338349,19.6578689 L35.1575288,0.0906943658 L68.4514329,18.6386679 L70.2264247,19.6223023 L67.75251,19.6235568 Z" id="upper" fill="#B5FFE2"></path>
                            <path d="M35.1850785,72.4572735 L70.2031291,52.8690692 L70.2031291,19.6193591 L35.1850783,39.1924471 L35.1850785,72.4572735 Z" id="border" fill="#83E6BE"></path>
                        </g>
                        <g id="cube" transform="translate(64.883936, 37.910000)">
                            <path d="M0.120067135,19.6419535 L0.0794300999,52.9030948 L35.1850785,72.4572735 L70.2031291,52.8690692 L70.2031291,19.6193591 L35.1340845,0.0439708236 L0.120067135,19.6419535 Z" id="border" fill="#91FFD3"></path>
                            <path d="M0.0886338349,19.6603233 L2.56254859,19.6590688 L70.2264247,19.6247567 L35.1575298,39.1924471 L1.8636257,20.6439577 L0.0886338349,19.6603233 Z M67.75251,19.6235568 L0.0886338349,19.6578689 L35.1575288,0.0906943658 L68.4514329,18.6386679 L70.2264247,19.6223023 L67.75251,19.6235568 Z" id="upper" fill="#B5FFE2"></path>
                            <path d="M35.1850785,72.4572735 L70.2031291,52.8690692 L70.2031291,19.6193591 L35.1850783,39.1924471 L35.1850785,72.4572735 Z" id="border" fill="#83E6BE"></path>
                        </g>
                        <g id="cube" transform="translate(131.276801, 75.820000)">
                            <path d="M0.120067135,19.6419535 L0.0794300999,52.9030948 L35.1850785,72.4572735 L70.2031291,52.8690692 L70.2031291,19.6193591 L35.1340845,0.0439708236 L0.120067135,19.6419535 Z" id="border" fill="#91FFD3"></path>
                            <path d="M0.0886338349,19.6603233 L2.56254859,19.6590688 L70.2264247,19.6247567 L35.1575298,39.1924471 L1.8636257,20.6439577 L0.0886338349,19.6603233 Z M67.75251,19.6235568 L0.0886338349,19.6578689 L35.1575288,0.0906943658 L68.4514329,18.6386679 L70.2264247,19.6223023 L67.75251,19.6235568 Z" id="upper" fill="#B5FFE2"></path>
                            <path d="M35.1850785,72.4572735 L70.2031291,52.8690692 L70.2031291,19.6193591 L35.1850783,39.1924471 L35.1850785,72.4572735 Z" id="border" fill="#83E6BE"></path>
                        </g>
                        <g id="cube" transform="translate(196.160737, 112.986667)">
                            <path d="M0.120067135,19.6419535 L0.0794300999,52.9030948 L35.1850785,72.4572735 L70.2031291,52.8690692 L70.2031291,19.6193591 L35.1340845,0.0439708236 L0.120067135,19.6419535 Z" id="border" fill="#91FFD3"></path>
                            <path d="M0.0886338349,19.6603233 L2.56254859,19.6590688 L70.2264247,19.6247567 L35.1575298,39.1924471 L1.8636257,20.6439577 L0.0886338349,19.6603233 Z M67.75251,19.6235568 L0.0886338349,19.6578689 L35.1575288,0.0906943658 L68.4514329,18.6386679 L70.2264247,19.6223023 L67.75251,19.6235568 Z" id="upper" fill="#B5FFE2"></path>
                            <path d="M35.1850785,72.4572735 L70.2031291,52.8690692 L70.2031291,19.6193591 L35.1850783,39.1924471 L35.1850785,72.4572735 Z" id="border" fill="#83E6BE"></path>
                        </g>
                        <g id="cube" transform="translate(130.522337, 0.000000)">
                            <path d="M0.120067135,19.6419535 L0.0794300999,52.9030948 L35.1850785,72.4572735 L70.2031291,52.8690692 L70.2031291,19.6193591 L35.1340845,0.0439708236 L0.120067135,19.6419535 Z" id="border" fill="#91FFD3"></path>
                            <path d="M0.0886338349,19.6603233 L2.56254859,19.6590688 L70.2264247,19.6247567 L35.1575298,39.1924471 L1.8636257,20.6439577 L0.0886338349,19.6603233 Z M67.75251,19.6235568 L0.0886338349,19.6578689 L35.1575288,0.0906943658 L68.4514329,18.6386679 L70.2264247,19.6223023 L67.75251,19.6235568 Z" id="upper" fill="#B5FFE2"></path>
                            <path d="M35.1850785,72.4572735 L70.2031291,52.8690692 L70.2031291,19.6193591 L35.1850783,39.1924471 L35.1850785,72.4572735 Z" id="border" fill="#83E6BE"></path>
                        </g>
                        <g id="cube" transform="translate(196.915201, 37.910000)">
                            <path d="M0.120067135,19.6419535 L0.0794300999,52.9030948 L35.1850785,72.4572735 L70.2031291,52.8690692 L70.2031291,19.6193591 L35.1340845,0.0439708236 L0.120067135,19.6419535 Z" id="border" fill="#91FFD3"></path>
                            <path d="M0.0886338349,19.6603233 L2.56254859,19.6590688 L70.2264247,19.6247567 L35.1575298,39.1924471 L1.8636257,20.6439577 L0.0886338349,19.6603233 Z M67.75251,19.6235568 L0.0886338349,19.6578689 L35.1575288,0.0906943658 L68.4514329,18.6386679 L70.2264247,19.6223023 L67.75251,19.6235568 Z" id="upper" fill="#B5FFE2"></path>
                            <path d="M35.1850785,72.4572735 L70.2031291,52.8690692 L70.2031291,19.6193591 L35.1850783,39.1924471 L35.1850785,72.4572735 Z" id="border" fill="#83E6BE"></path>
                        </g>
                        <g id="cube" transform="translate(261.799138, 75.076667)">
                            <path d="M0.120067135,19.6419535 L0.0794300999,52.9030948 L35.1850785,72.4572735 L70.2031291,52.8690692 L70.2031291,19.6193591 L35.1340845,0.0439708236 L0.120067135,19.6419535 Z" id="border" fill="#91FFD3"></path>
                            <path d="M0.0886338349,19.6603233 L2.56254859,19.6590688 L70.2264247,19.6247567 L35.1575298,39.1924471 L1.8636257,20.6439577 L0.0886338349,19.6603233 Z M67.75251,19.6235568 L0.0886338349,19.6578689 L35.1575288,0.0906943658 L68.4514329,18.6386679 L70.2264247,19.6223023 L67.75251,19.6235568 Z" id="upper" fill="#B5FFE2"></path>
                            <path d="M35.1850785,72.4572735 L70.2031291,52.8690692 L70.2031291,19.6193591 L35.1850783,39.1924471 L35.1850785,72.4572735 Z" id="border" fill="#83E6BE"></path>
                        </g>
                    </g>
                    <g id="Group">
                        <g id="cube" transform="translate(0.000000, 75.076667)">
                            <path d="M0.120067135,19.6419535 L0.0794300999,52.9030948 L35.1850785,72.4572735 L70.2031291,52.8690692 L70.2031291,19.6193591 L35.1340845,0.0439708236 L0.120067135,19.6419535 Z" id="border" fill="#91FFD3"></path>
                            <path d="M0.0886338349,19.6603233 L2.56254859,19.6590688 L70.2264247,19.6247567 L35.1575298,39.1924471 L1.8636257,20.6439577 L0.0886338349,19.6603233 Z M67.75251,19.6235568 L0.0886338349,19.6578689 L35.1575288,0.0906943658 L68.4514329,18.6386679 L70.2264247,19.6223023 L67.75251,19.6235568 Z" id="upper" fill="#B5FFE2"></path>
                            <path d="M35.1850785,72.4572735 L70.2031291,52.8690692 L70.2031291,19.6193591 L35.1850783,39.1924471 L35.1850785,72.4572735 Z" id="border" fill="#83E6BE"></path>
                        </g>
                        <g id="cube" transform="translate(66.392865, 112.986667)">
                            <path d="M0.120067135,19.6419535 L0.0794300999,52.9030948 L35.1850785,72.4572735 L70.2031291,52.8690692 L70.2031291,19.6193591 L35.1340845,0.0439708236 L0.120067135,19.6419535 Z" id="border" fill="#91FFD3"></path>
                            <path d="M0.0886338349,19.6603233 L2.56254859,19.6590688 L70.2264247,19.6247567 L35.1575298,39.1924471 L1.8636257,20.6439577 L0.0886338349,19.6603233 Z M67.75251,19.6235568 L0.0886338349,19.6578689 L35.1575288,0.0906943658 L68.4514329,18.6386679 L70.2264247,19.6223023 L67.75251,19.6235568 Z" id="upper" fill="#B5FFE2"></path>
                            <path d="M35.1850785,72.4572735 L70.2031291,52.8690692 L70.2031291,19.6193591 L35.1850783,39.1924471 L35.1850785,72.4572735 Z" id="border" fill="#83E6BE"></path>
                        </g>
                        <g id="cube" transform="translate(131.276801, 150.153333)">
                            <path d="M0.120067135,19.6419535 L0.0794300999,52.9030948 L35.1850785,72.4572735 L70.2031291,52.8690692 L70.2031291,19.6193591 L35.1340845,0.0439708236 L0.120067135,19.6419535 Z" id="border" fill="#91FFD3"></path>
                            <path d="M0.0886338349,19.6603233 L2.56254859,19.6590688 L70.2264247,19.6247567 L35.1575298,39.1924471 L1.8636257,20.6439577 L0.0886338349,19.6603233 Z M67.75251,19.6235568 L0.0886338349,19.6578689 L35.1575288,0.0906943658 L68.4514329,18.6386679 L70.2264247,19.6223023 L67.75251,19.6235568 Z" id="upper" fill="#B5FFE2"></path>
                            <path d="M35.1850785,72.4572735 L70.2031291,52.8690692 L70.2031291,19.6193591 L35.1850783,39.1924471 L35.1850785,72.4572735 Z" id="border" fill="#83E6BE"></path>
                        </g>
                        <g id="cube" transform="translate(64.883936, 37.910000)">
                            <path d="M0.120067135,19.6419535 L0.0794300999,52.9030948 L35.1850785,72.4572735 L70.2031291,52.8690692 L70.2031291,19.6193591 L35.1340845,0.0439708236 L0.120067135,19.6419535 Z" id="border" fill="#91FFD3"></path>
                            <path d="M0.0886338349,19.6603233 L2.56254859,19.6590688 L70.2264247,19.6247567 L35.1575298,39.1924471 L1.8636257,20.6439577 L0.0886338349,19.6603233 Z M67.75251,19.6235568 L0.0886338349,19.6578689 L35.1575288,0.0906943658 L68.4514329,18.6386679 L70.2264247,19.6223023 L67.75251,19.6235568 Z" id="upper" fill="#B5FFE2"></path>
                            <path d="M35.1850785,72.4572735 L70.2031291,52.8690692 L70.2031291,19.6193591 L35.1850783,39.1924471 L35.1850785,72.4572735 Z" id="border" fill="#83E6BE"></path>
                        </g>
                        <g id="cube" transform="translate(131.276801, 75.820000)">
                            <path d="M0.120067135,19.6419535 L0.0794300999,52.9030948 L35.1850785,72.4572735 L70.2031291,52.8690692 L70.2031291,19.6193591 L35.1340845,0.0439708236 L0.120067135,19.6419535 Z" id="border" fill="#91FFD3"></path>
                            <path d="M0.0886338349,19.6603233 L2.56254859,19.6590688 L70.2264247,19.6247567 L35.1575298,39.1924471 L1.8636257,20.6439577 L0.0886338349,19.6603233 Z M67.75251,19.6235568 L0.0886338349,19.6578689 L35.1575288,0.0906943658 L68.4514329,18.6386679 L70.2264247,19.6223023 L67.75251,19.6235568 Z" id="upper" fill="#B5FFE2"></path>
                            <path d="M35.1850785,72.4572735 L70.2031291,52.8690692 L70.2031291,19.6193591 L35.1850783,39.1924471 L35.1850785,72.4572735 Z" id="border" fill="#83E6BE"></path>
                        </g>
                        <g id="cube" transform="translate(196.160737, 112.986667)">
                            <path d="M0.120067135,19.6419535 L0.0794300999,52.9030948 L35.1850785,72.4572735 L70.2031291,52.8690692 L70.2031291,19.6193591 L35.1340845,0.0439708236 L0.120067135,19.6419535 Z" id="border" fill="#91FFD3"></path>
                            <path d="M0.0886338349,19.6603233 L2.56254859,19.6590688 L70.2264247,19.6247567 L35.1575298,39.1924471 L1.8636257,20.6439577 L0.0886338349,19.6603233 Z M67.75251,19.6235568 L0.0886338349,19.6578689 L35.1575288,0.0906943658 L68.4514329,18.6386679 L70.2264247,19.6223023 L67.75251,19.6235568 Z" id="upper" fill="#B5FFE2"></path>
                            <path d="M35.1850785,72.4572735 L70.2031291,52.8690692 L70.2031291,19.6193591 L35.1850783,39.1924471 L35.1850785,72.4572735 Z" id="border" fill="#83E6BE"></path>
                        </g>
                        <g id="cube" transform="translate(130.522337, 0.000000)">
                            <path d="M0.120067135,19.6419535 L0.0794300999,52.9030948 L35.1850785,72.4572735 L70.2031291,52.8690692 L70.2031291,19.6193591 L35.1340845,0.0439708236 L0.120067135,19.6419535 Z" id="border" fill="#91FFD3"></path>
                            <path d="M0.0886338349,19.6603233 L2.56254859,19.6590688 L70.2264247,19.6247567 L35.1575298,39.1924471 L1.8636257,20.6439577 L0.0886338349,19.6603233 Z M67.75251,19.6235568 L0.0886338349,19.6578689 L35.1575288,0.0906943658 L68.4514329,18.6386679 L70.2264247,19.6223023 L67.75251,19.6235568 Z" id="upper" fill="#B5FFE2"></path>
                            <path d="M35.1850785,72.4572735 L70.2031291,52.8690692 L70.2031291,19.6193591 L35.1850783,39.1924471 L35.1850785,72.4572735 Z" id="border" fill="#83E6BE"></path>
                        </g>
                        <g id="cube" transform="translate(196.915201, 37.910000)">
                            <path d="M0.120067135,19.6419535 L0.0794300999,52.9030948 L35.1850785,72.4572735 L70.2031291,52.8690692 L70.2031291,19.6193591 L35.1340845,0.0439708236 L0.120067135,19.6419535 Z" id="border" fill="#91FFD3"></path>
                            <path d="M0.0886338349,19.6603233 L2.56254859,19.6590688 L70.2264247,19.6247567 L35.1575298,39.1924471 L1.8636257,20.6439577 L0.0886338349,19.6603233 Z M67.75251,19.6235568 L0.0886338349,19.6578689 L35.1575288,0.0906943658 L68.4514329,18.6386679 L70.2264247,19.6223023 L67.75251,19.6235568 Z" id="upper" fill="#B5FFE2"></path>
                            <path d="M35.1850785,72.4572735 L70.2031291,52.8690692 L70.2031291,19.6193591 L35.1850783,39.1924471 L35.1850785,72.4572735 Z" id="border" fill="#83E6BE"></path>
                        </g>
                        <g id="cube" transform="translate(261.799138, 75.076667)">
                            <path d="M0.120067135,19.6419535 L0.0794300999,52.9030948 L35.1850785,72.4572735 L70.2031291,52.8690692 L70.2031291,19.6193591 L35.1340845,0.0439708236 L0.120067135,19.6419535 Z" id="border" fill="#91FFD3"></path>
                            <path d="M0.0886338349,19.6603233 L2.56254859,19.6590688 L70.2264247,19.6247567 L35.1575298,39.1924471 L1.8636257,20.6439577 L0.0886338349,19.6603233 Z M67.75251,19.6235568 L0.0886338349,19.6578689 L35.1575288,0.0906943658 L68.4514329,18.6386679 L70.2264247,19.6223023 L67.75251,19.6235568 Z" id="upper" fill="#B5FFE2"></path>
                            <path d="M35.1850785,72.4572735 L70.2031291,52.8690692 L70.2031291,19.6193591 L35.1850783,39.1924471 L35.1850785,72.4572735 Z" id="border" fill="#83E6BE"></path>
                        </g>
                    </g>
                </g>
            </g>
        </g>
    </g>
</svg>